<?xml version="1.0" encoding="utf-8"?>
<!-- Generator: Adobe Illustrator 19.0.0, SVG Export Plug-In . SVG Version: 6.00 Build 0)  -->
<svg version="1.1" xmlns="http://www.w3.org/2000/svg" xmlns:xlink="http://www.w3.org/1999/xlink" x="0px" y="0px"
	 viewBox="0 0 125.9102097 144.2659302" style="enable-background:new 0 0 125.9102097 144.2659302;" xml:space="preserve">
<style type="text/css">
	.st0{fill:#CF9E20;}
	.st1{fill:#60BCE1;}
	.st2{fill:#304C96;}
	.st3{fill:#0000CC;}
</style>
<g id="圖層_1">
</g>
<g id="圖層_2">
	<g id="XMLID_15_">
		<path id="XMLID_23_" class="st0" d="M125.4354324,83.7319336c-0.625-3.8125-0.9395752-5.3654175-3.1889648-12.4904175
			s-6.7857666-17.03125-8.8482666-21.03125s-5.0078125-9.25-6.7890625-12.0625s-4.734375-7.1875-4.734375-7.1875
			c-2.4375-3.59375-5.71875-7.625-10-12.5s-8.5-8.6146231-8.5-8.6146231c-5.916687-4.9583135-7.0043335-5.2584844-11.4375-7.7291265
			c-3.8125-2.1248169-8.5830688-2.1165161-8.5830688-2.1165161s-5.8544312-0.0083008-9.8245239,2.4092407
			c-4.3347168,2.6395264-5.0566406,2.4780884-10.9733276,7.4364018c0,0-4.2301636,3.739624-8.5114136,8.6146231
			s-7.5681763,8.90625-10.0056763,12.5c0,0-2.9559937,4.375-4.7372437,7.1875s-4.7279663,8.0625-6.7904663,12.0625
			s-6.5996094,13.90625-8.848999,21.03125s-2.5643311,8.6779175-3.1893311,12.4904175s-0.5322876,6.9158325-0.2822876,8.9470825
			s0.7182007,6.21875,3.4057007,10s6.0309448,5.53125,8.6871948,6.875s11.8748779,5.21875,21.1561279,6.6875
			s14.6080322,2.03125,18.6080322,2.1875s10.9517822,0.3125,10.9517822,0.3125v-0.0072021
			c1-0.0224609,7.2866821-0.1621094,10.9518433-0.3052979c4-0.15625,9.2583618-0.71875,18.5396118-2.1875
			s18.4884644-5.34375,21.1447144-6.6875s5.9940491-3.09375,8.6815491-6.875s3.1529083-7.96875,3.4029083-10
			S126.0604324,87.5444336,125.4354324,83.7319336z M120.8122635,98.3143921c-2.875,7.625-20.604187,12.34375-20.604187,12.34375
			c-13.666626,4.833374-37.369812,4.2756348-37.369812,4.2756348s-23.4713745,0.5577393-37.1380615-4.2756348
			c0,0-17.729126-4.71875-20.604126-12.34375s-0.65625-17.067688-0.03125-19.026001
			c0.625-1.958374,3.026001-10.8671875,6.192688-17.9505615c3.166687-7.083313,8.4958496-19.088562,14.3671875-27.3294067
			c5.2805786-7.4116211,7.5449829-10.4006958,11.4544067-14.8313599c5.1660156-5.8548574,8.9193115-9.2341909,13.9980469-12.3323975
			c3.5501709-2.1656494,6.7613525-3.4136963,9.5476074-3.7906494c1.9945679-0.2698975,2.6690063-0.2658691,2.6690063-0.2658691
			s0.4197388,0.0168457,2.4143066,0.2866821c2.7862549,0.3769531,5.572937,1.604187,9.1230469,3.7698364
			c5.0787354,3.098206,8.8320313,6.4775395,13.9980469,12.3323975c3.9094849,4.4306641,6.1738892,7.4197388,11.4544678,14.8313599
			c5.8713379,8.2408447,11.2005005,20.2460938,14.3671875,27.3294067c3.166626,7.083374,5.567688,15.9921875,6.192688,17.9505615
			C121.4685135,81.2467041,123.6872635,90.6893921,120.8122635,98.3143921z"/>
		<g id="XMLID_2_">
			<polygon id="XMLID_17_" class="st1" points="75.2497635,61.9706841 83.8330994,57.8873482 94.9164276,111.6790161 
				82.8330994,106.512352 			"/>
			<polygon id="XMLID_22_" class="st2" points="62.9997635,3.5540166 44.6247635,106.3040161 62.9997635,97.5540161 
				81.3747635,106.3040161 			"/>
			<polygon id="XMLID_18_" class="st1" points="50.6585503,61.9706841 42.0752182,57.8873482 30.9918842,111.6790161 
				43.0752182,106.512352 			"/>
		</g>
	</g>
	<g id="XMLID_16_">
		<path id="XMLID_19_" class="st3" d="M48.4297867,143.8948364h-4.7753906l-1.8984375-4.9384766h-8.6894531l-1.7949219,4.9384766
			h-4.65625l8.4677734-21.7402344h4.6416016L48.4297867,143.8948364z M40.3477554,135.2932739l-2.9960938-8.0664063
			l-2.9365234,8.0664063H40.3477554z"/>
		<path id="XMLID_26_" class="st3" d="M50.6241226,143.8948364v-21.7402344h4.3896484v21.7402344H50.6241226z"/>
		<path id="XMLID_28_" class="st3" d="M59.1807632,122.1546021h8.0234375c1.8085938,0,3.1884766,0.1386719,4.1367188,0.4150391
			c1.2753906,0.3759766,2.3681641,1.0439453,3.2773438,2.0019531c0.9101563,0.9599609,1.6015625,2.1337891,2.0761719,3.5224609
			s0.7119141,3.1015625,0.7119141,5.1386719c0,1.7890625-0.2226563,3.3310547-0.6669922,4.6269531
			c-0.5439453,1.5810547-1.3203125,2.8613281-2.328125,3.8408203c-0.7617188,0.7412109-1.7900391,1.3193359-3.0849609,1.734375
			c-0.96875,0.3066406-2.2636719,0.4599609-3.8847656,0.4599609h-8.2607422V122.1546021z M63.5704117,125.8323364v14.3994141
			h3.2773438c1.2255859,0,2.1113281-0.0683594,2.6542969-0.2070313c0.7119141-0.1787109,1.3027344-0.4794922,1.7724609-0.9052734
			c0.4697266-0.4248047,0.8525391-1.1240234,1.1494141-2.0976563s0.4453125-2.3017578,0.4453125-3.9824219
			s-0.1484375-2.9707031-0.4453125-3.8701172s-0.7119141-1.6015625-1.2460938-2.1054688
			c-0.5332031-0.5048828-1.2109375-0.8457031-2.03125-1.0234375c-0.6132813-0.1386719-1.8144531-0.2080078-3.6035156-0.2080078
			H63.5704117z"/>
		<path id="XMLID_31_" class="st3" d="M95.0381851,135.9016724l4.2568359,1.3496094
			c-0.6523438,2.3730469-1.7382813,4.1347656-3.2558594,5.2871094c-1.5175781,1.1513672-3.4423828,1.7275391-5.7753906,1.7275391
			c-2.8867188,0-5.2597656-0.9863281-7.1181641-2.9589844c-1.859375-1.9716797-2.7880859-4.6689453-2.7880859-8.0888672
			c0-3.6191406,0.9345703-6.4287109,2.8027344-8.4306641s4.3251953-3.0029297,7.3701172-3.0029297
			c2.6591797,0,4.8193359,0.7851563,6.4804688,2.3574219c0.9882813,0.9296875,1.7304688,2.2636719,2.2246094,4.0039063
			l-4.3447266,1.0380859c-0.2578125-1.1269531-0.7939453-2.0166016-1.609375-2.6689453s-1.8066406-0.9785156-2.9736328-0.9785156
			c-1.6113281,0-2.9189453,0.578125-3.921875,1.734375c-1.0039063,1.1572266-1.5048828,3.0302734-1.5048828,5.6201172
			c0,2.7490234,0.4941406,4.7060547,1.4824219,5.8730469s2.2734375,1.75,3.8554688,1.75
			c1.1669922,0,2.1699219-0.3710938,3.0107422-1.1123047C94.0694351,138.6604614,94.6729507,137.4934692,95.0381851,135.9016724z"/>
	</g>
</g>
</svg>
